<svg xmlns="http://www.w3.org/2000/svg" viewBox="0 0 216.34 216.34">
  <defs>
    <style>
      .i1{fill:#1d71b8;}
      .i2{fill:#fff;stroke:#1d71b8;stroke-miterlimit:10;stroke-width:3px;}
      .i3{fill:#fff;}
    </style>
  </defs>
  <g transform="translate(0 -8.21)">
    <path class="i1" d="M108.17,8.21A108.17,108.17,0,1,0,216.34,116.38,108.17,108.17,0,0,0,108.17,8.21ZM11,95.18C22,42.69,77.31-4.22,148.52,25.94c23.53,10,40.82,27.43,51.64,50.89a49.07,49.07,0,0,1,4.71,21.51c-2.59-1.21-4.61-2-6.47-3Q174.67,81.75,151,68.11c-12.81-7.35-26-13.67-40.87-15.63-15.45-2-29.14,2-41,12C55.51,76,47.36,90.91,42.35,107.81c-.92,3.11.91,3.83,2.95,4.83q35,17.25,69.93,34.54c.88.43,1.71,1,2.86,1.63-15.36,16.58-33.89,24-56,21.17C24.65,165.19,3,133.69,11,95.18Zm58.29,113A23.33,23.33,0,0,1,59,204.91c-19.28-11.71-33.06-28.43-42.9-48.59a10.2,10.2,0,0,1-.25-2.2A76.46,76.46,0,0,0,62.19,176.2c22.3,2.51,41.6-4.29,57-20.79,10.42-11.17,14.73-24.73,11.92-40-2.25-12.22-12.26-20.21-25.12-20.83-11.84-.58-24.06,7.59-27.24,18.2C96,99.52,105.47,98.18,116.31,107.5c8.61,7.42,10.58,20.57,4.58,31.79L52.48,106.17c7-30.21,38.26-53.41,69.41-42,12.16,4.46,20.8,13,27,24.22C172.1,130.18,153.32,182,108,201.3A85.1,85.1,0,0,1,69.33,208.13Zm62.15,5.68c-11.94,3.2-23.27,3.33-38.31.28,30.71-5.9,50.82-24.36,64.69-50.34,14.39-27,10.13-54.13-.94-81.67a21.19,21.19,0,0,1,3.08,1c14.67,8.07,29.37,16.1,43.94,24.36a6.54,6.54,0,0,1,3,4.58C208.35,160,177.46,201.53,131.48,213.81Z"/>
    <path class="i2" d="M131.48,213.81c-11.94,3.2-23.27,3.33-38.31.28,30.71-5.9,50.82-24.36,64.69-50.34,14.39-27,10.13-54.13-.94-81.67a21.19,21.19,0,0,1,3.08,1c14.67,8.07,29.37,16.1,43.94,24.36a6.54,6.54,0,0,1,3,4.58C208.35,160,177.46,201.53,131.48,213.81Z"/>
    <path class="i2" d="M108,201.3a85.1,85.1,0,0,1-38.7,6.83A23.33,23.33,0,0,1,59,204.91c-19.28-11.71-33.06-28.43-42.9-48.59a10.2,10.2,0,0,1-.25-2.2A76.46,76.46,0,0,0,62.19,176.2c22.3,2.51,41.6-4.29,57-20.79,10.42-11.17,14.73-24.73,11.92-40-2.25-12.22-12.26-20.21-25.12-20.83-11.84-.58-24.06,7.59-27.24,18.2C96,99.52,105.47,98.18,116.31,107.5c8.61,7.42,10.58,20.57,4.58,31.79L52.48,106.17c7-30.21,38.26-53.41,69.41-42,12.16,4.46,20.8,13,27,24.22C172.1,130.18,153.32,182,108,201.3Z"/>
    <path class="i3" d="M204.87,98.34c-2.59-1.21-4.61-2-6.47-3Q174.67,81.75,151,68.11c-12.81-7.35-26-13.67-40.87-15.63-15.45-2-29.14,2-41,12C55.51,76,47.36,90.91,42.35,107.81c-.92,3.11.91,3.83,2.95,4.83q35,17.25,69.93,34.54c.88.43,1.71,1,2.86,1.63-15.36,16.58-33.89,24-56,21.17C24.65,165.19,3,133.69,11,95.18,22,42.69,77.31-4.22,148.52,25.94c23.53,10,40.82,27.43,51.64,50.89A49.07,49.07,0,0,1,204.87,98.34Z"/>
  </g>
</svg>
