<svg id="Capa_1" data-name="Capa 1" xmlns="http://www.w3.org/2000/svg" viewBox="0 0 32 32"><defs><style>.cls-1{fill:#fff;}.cls-2{fill:#bd1622;}.cls-3{fill:#1d70b7;}.cls-4{fill:#f8b133;}</style></defs><path class="cls-1" d="M31.55,13.11a7.73,7.73,0,0,0-.76-3.44,15.73,15.73,0,0,0-8.37-8.15C10.89-3.31,1.93,4.2.16,12.61c-1.3,6.16,2.2,11.21,8.27,12a10.1,10.1,0,0,0,9.07-3.39c-.19-.1-.32-.19-.47-.26L5.71,15.4c-.33-.16-.63-.27-.48-.77A13.91,13.91,0,0,1,9.56,7.69,8.28,8.28,0,0,1,16.2,5.77a18,18,0,0,1,6.62,2.5l7.68,4.36C30.8,12.8,31.13,12.92,31.55,13.11ZM.93,22a1.42,1.42,0,0,0,0,.36,18.22,18.22,0,0,0,7,7.78,3.83,3.83,0,0,0,1.68.51,13.92,13.92,0,0,0,6.27-1.09c7.33-3.09,10.37-11.39,6.62-18.08a8.21,8.21,0,0,0-4.38-3.88C13.07,5.81,8,9.53,6.87,14.37L18,19.67a4.09,4.09,0,0,0-.74-5.09c-1.76-1.49-3.29-1.28-6.09.85a4.55,4.55,0,0,1,4.41-2.92,4.12,4.12,0,0,1,4.07,3.34,7.05,7.05,0,0,1-1.93,6.4,10.51,10.51,0,0,1-9.23,3.33A12.42,12.42,0,0,1,.93,22Zm12.53,9.61a12.9,12.9,0,0,0,6.2,0A16.24,16.24,0,0,0,31.88,15.31a1,1,0,0,0-.48-.73C29,13.25,26.66,12,24.28,10.67a4,4,0,0,0-.49-.16c1.79,4.41,2.48,8.76.15,13.08C21.69,27.75,18.43,30.7,13.46,31.65Z" transform="translate(0.11)"/><path class="cls-2" d="M31.55,13.11c-.42-.19-.75-.31-1.05-.48L22.82,8.27a18,18,0,0,0-6.62-2.5A8.28,8.28,0,0,0,9.56,7.69a13.91,13.91,0,0,0-4.33,6.94c-.15.5.15.61.48.77L17,20.93c.15.07.28.16.47.26a10.1,10.1,0,0,1-9.07,3.39c-6.07-.76-9.57-5.81-8.27-12C1.93,4.2,10.89-3.31,22.42,1.52a15.73,15.73,0,0,1,8.37,8.15A7.73,7.73,0,0,1,31.55,13.11Z" transform="translate(0.11)"/><path class="cls-3" d="M.93,22a12.42,12.42,0,0,0,7.51,3.54,10.51,10.51,0,0,0,9.23-3.33,7.05,7.05,0,0,0,1.93-6.4,4.12,4.12,0,0,0-4.07-3.34,4.55,4.55,0,0,0-4.41,2.92c2.8-2.13,4.33-2.34,6.09-.85A4.09,4.09,0,0,1,18,19.67L6.87,14.37C8,9.53,13.07,5.81,18.11,7.64a8.21,8.21,0,0,1,4.38,3.88c3.75,6.69.71,15-6.62,18.08A13.92,13.92,0,0,1,9.6,30.69a3.83,3.83,0,0,1-1.68-.51A18.22,18.22,0,0,1,1,22.4,1.42,1.42,0,0,1,.93,22Z" transform="translate(0.11)"/><path class="cls-4" d="M13.46,31.65c5-.95,8.23-3.9,10.48-8.06,2.33-4.32,1.64-8.67-.15-13.08a4,4,0,0,1,.49.16C26.66,12,29,13.25,31.4,14.58a1,1,0,0,1,.48.73A16.24,16.24,0,0,1,19.66,31.6,12.9,12.9,0,0,1,13.46,31.65Z" transform="translate(0.11)"/></svg>